<svg xmlns="http://www.w3.org/2000/svg" width="40" height="40" viewBox="0 0 40 40">
  <g id="icon_2" transform="translate(-200 -230.969)">
    <g id="グループ_2191" data-name="グループ 2191" transform="translate(200 230.969)">
      <path id="パス_1048" data-name="パス 1048" d="M201,240.094h8.125v-8.125" transform="translate(-200.375 -231.344)" fill="#d2e1f9"/>
      <path id="パス_1049" data-name="パス 1049" d="M208.125,240.344h-7.5a.625.625,0,1,1,0-1.25h7.5v-7.5a.625.625,0,0,1,1.25,0v7.5A1.251,1.251,0,0,1,208.125,240.344Z" transform="translate(-200 -230.969)" fill="#113293"/>
    </g>
    <path id="パス_1050" data-name="パス 1050" d="M227.616,251.969H207.66a.625.625,0,1,1,0-1.25h19.956a.625.625,0,0,1,0,1.25Z" transform="translate(-2.638 -7.406)" fill="#113293"/>
    <path id="パス_1051" data-name="パス 1051" d="M227.616,261.719H207.66a.625.625,0,1,1,0-1.25h19.956a.625.625,0,0,1,0,1.25Z" transform="translate(-2.638 -11.063)" fill="#113293"/>
    <path id="パス_1052" data-name="パス 1052" d="M223.733,271.469h-16.25a.625.625,0,1,1,0-1.25h16.25a.625.625,0,0,1,0,1.25Z" transform="translate(-2.572 -14.719)" fill="#113293"/>
    <path id="パス_1053" data-name="パス 1053" d="M218.681,281.219H207.66a.625.625,0,1,1,0-1.25h11.021a.625.625,0,0,1,0,1.25Z" transform="translate(-2.638 -18.375)" fill="#113293"/>
    <path id="パス_1054" data-name="パス 1054" d="M228.75,232.219v35h-27.5V239.742a.77.77,0,0,1,.077-.206l7.224-7.225a.734.734,0,0,1,.2-.092h20m.625-1.25H208.75a1.742,1.742,0,0,0-1.067.442l-7.241,7.241a1.739,1.739,0,0,0-.442,1.067v28.125a.627.627,0,0,0,.625.625h28.75a.627.627,0,0,0,.625-.625v-36.25a.627.627,0,0,0-.625-.625Z" fill="#113293"/>
    <g id="グループ_2192" data-name="グループ 2192" transform="translate(224.691 248.157)">
      <path id="パス_1055" data-name="パス 1055" d="M253.4,263.036a6.876,6.876,0,1,1-2.591-2.647" transform="translate(-239.879 -258.844)" fill="#d2e1f9"/>
      <path id="パス_1056" data-name="パス 1056" d="M247,273.466a7.5,7.5,0,1,1,3.751-13.993.625.625,0,0,1-.626,1.083,6.25,6.25,0,1,0,2.355,2.406.625.625,0,0,1,1.1-.6A7.5,7.5,0,0,1,247,273.466Z" transform="translate(-239.506 -258.47)" fill="#113293"/>
    </g>
    <path id="パス_1057" data-name="パス 1057" d="M249.686,270.279a.935.935,0,0,1-.648-.26L245.888,267a.938.938,0,1,1,1.3-1.355l2.5,2.394,5.828-5.576a.938.938,0,0,1,1.3,1.355l-6.476,6.2A.937.937,0,0,1,249.686,270.279Z" transform="translate(-17.1 -11.715)" fill="#113293"/>
    <rect id="長方形_2862" data-name="長方形 2862" width="40" height="40" transform="translate(200 230.969)" fill="none"/>
  </g>
</svg>
