<svg xmlns="http://www.w3.org/2000/svg" width="40" height="40" viewBox="0 0 40 40">
  <g id="icon_1" transform="translate(-100 -230.969)">
    <g id="グループ_2188" data-name="グループ 2188" transform="translate(100 230.969)">
      <path id="パス_1037" data-name="パス 1037" d="M101,240.094h8.125v-8.125" transform="translate(-100.375 -231.344)" fill="#d2e1f9"/>
      <path id="パス_1038" data-name="パス 1038" d="M108.125,240.344h-7.5a.625.625,0,0,1,0-1.25h7.5v-7.5a.625.625,0,0,1,1.25,0v7.5A1.251,1.251,0,0,1,108.125,240.344Z" transform="translate(-100 -230.969)" fill="#113293"/>
    </g>
    <path id="パス_1039" data-name="パス 1039" d="M127.616,251.969H107.66a.625.625,0,1,1,0-1.25h19.956a.625.625,0,1,1,0,1.25Z" transform="translate(-2.638 -7.406)" fill="#113293"/>
    <path id="パス_1040" data-name="パス 1040" d="M127.616,261.719H107.66a.625.625,0,1,1,0-1.25h19.956a.625.625,0,1,1,0,1.25Z" transform="translate(-2.638 -11.063)" fill="#113293"/>
    <path id="パス_1041" data-name="パス 1041" d="M123.733,271.469h-16.25a.625.625,0,1,1,0-1.25h16.25a.625.625,0,0,1,0,1.25Z" transform="translate(-2.572 -14.719)" fill="#113293"/>
    <path id="パス_1042" data-name="パス 1042" d="M118.681,281.219H107.66a.625.625,0,1,1,0-1.25h11.021a.625.625,0,0,1,0,1.25Z" transform="translate(-2.638 -18.375)" fill="#113293"/>
    <path id="パス_1043" data-name="パス 1043" d="M128.75,232.219v35h-27.5V239.742a.77.77,0,0,1,.077-.206l7.224-7.225a.734.734,0,0,1,.2-.092h20m.625-1.25H108.75a1.742,1.742,0,0,0-1.067.442l-7.241,7.241a1.739,1.739,0,0,0-.442,1.067v28.125a.627.627,0,0,0,.625.625h28.75a.627.627,0,0,0,.625-.625v-36.25a.627.627,0,0,0-.625-.625Z" fill="#113293"/>
    <g id="グループ_2189" data-name="グループ 2189" transform="translate(124.535 232.939)">
      <path id="パス_1044" data-name="パス 1044" d="M151.169,234.272a2.5,2.5,0,0,0-3.2,1.494l-8.551,23.492-.157,6.008a.625.625,0,0,0,1.114.406l3.741-4.7,8.551-23.493A2.5,2.5,0,0,0,151.169,234.272Z" transform="translate(-139.257 -234.121)" fill="#d2e1f9"/>
      <path id="パス_1045" data-name="パス 1045" d="M150.314,235.371a1.252,1.252,0,0,1,1.174,1.678l-8.481,23.3-2.453,3.082.1-3.937,8.481-23.3a1.254,1.254,0,0,1,1.175-.823m0-1.25a2.5,2.5,0,0,0-2.349,1.646l-8.551,23.493-.157,6.008a.623.623,0,0,0,.631.643.61.61,0,0,0,.483-.237l3.741-4.7,8.551-23.492a2.5,2.5,0,0,0-2.349-3.356Z" transform="translate(-139.257 -234.121)" fill="#113293"/>
    </g>
    <g id="グループ_2190" data-name="グループ 2190" transform="translate(124.535 232.939)">
      <rect id="長方形_2859" data-name="長方形 2859" width="1.25" height="5" transform="matrix(0.342, -0.94, 0.94, 0.342, 7.368, 5.327)" fill="#113293"/>
      <path id="パス_1046" data-name="パス 1046" d="M150.314,235.371a1.252,1.252,0,0,1,1.174,1.678l-8.481,23.3-2.453,3.082.1-3.937,8.481-23.3a1.254,1.254,0,0,1,1.175-.823m0-1.25a2.5,2.5,0,0,0-2.349,1.646l-8.551,23.493-.157,6.008a.623.623,0,0,0,.631.643.61.61,0,0,0,.483-.237l3.741-4.7,8.551-23.492a2.5,2.5,0,0,0-2.349-3.356Z" transform="translate(-139.257 -234.121)" fill="#113293"/>
      <rect id="長方形_2860" data-name="長方形 2860" width="1.25" height="5" transform="matrix(0.342, -0.94, 0.94, 0.342, 0.157, 25.138)" fill="#113293"/>
      <path id="パス_1047" data-name="パス 1047" d="M155.673,253.249a.607.607,0,0,1-.213-.038.624.624,0,0,1-.374-.8l2.746-7.545-.587-.214a.625.625,0,1,1,.427-1.174l1.174.428a.625.625,0,0,1,.374.8l-2.96,8.133A.625.625,0,0,1,155.673,253.249Z" transform="translate(-145.178 -237.615)" fill="#113293"/>
    </g>
    <rect id="長方形_2861" data-name="長方形 2861" width="40" height="40" transform="translate(100 230.969)" fill="none"/>
  </g>
</svg>
