<svg xmlns="http://www.w3.org/2000/svg" width="40" height="40" viewBox="0 0 40 40">
  <g id="グループ_2238" data-name="グループ 2238" transform="translate(-715.379 -234.938)">
    <ellipse id="楕円形_21" data-name="楕円形 21" cx="10.56" cy="10.504" rx="10.56" ry="10.504" transform="translate(724.819 244.826)" fill="#d2e1f9"/>
    <path id="パス_1122" data-name="パス 1122" d="M740.668,272.039a11.186,11.186,0,1,1,5.594-20.874.625.625,0,0,1-.626,1.082,9.935,9.935,0,1,0,3.744,3.826.625.625,0,1,1,1.095-.6,11.238,11.238,0,0,1-1.9,13.292A11.112,11.112,0,0,1,740.668,272.039Z" transform="translate(-5.289 -5.525)" fill="#113293"/>
    <path id="パス_1123" data-name="パス 1123" d="M744.893,267.071a.936.936,0,0,1-.648-.26l-4.838-4.629a.937.937,0,1,1,1.3-1.354l4.189,4.009,9.3-8.9a.938.938,0,0,1,1.3,1.355l-9.948,9.517A.939.939,0,0,1,744.893,267.071Z" transform="translate(-8.902 -7.778)" fill="#113293"/>
    <rect id="長方形_2880" data-name="長方形 2880" width="40" height="40" transform="translate(715.379 234.938)" fill="none"/>
  </g>
</svg>
