<svg xmlns="http://www.w3.org/2000/svg" width="40" height="40" viewBox="0 0 40 40">
  <g id="icon_3" transform="translate(-400 -230.969)">
    <path id="パス_1072" data-name="パス 1072" d="M411.941,254.618H407.7a.625.625,0,0,1,0-1.25h4.238a.625.625,0,0,1,0,1.25Z" transform="translate(-2.654 -8.399)" fill="#113293"/>
    <path id="パス_1073" data-name="パス 1073" d="M451.488,279.737h-5.721a.625.625,0,0,1,0-1.25h5.721a.625.625,0,0,1,0,1.25Z" transform="translate(-16.928 -17.819)" fill="#d2e1f9"/>
    <path id="パス_1074" data-name="パス 1074" d="M452.851,241.52h-5.722a.625.625,0,0,1,0-1.25h5.722a.625.625,0,0,1,0,1.25Z" transform="translate(-17.439 -3.488)" fill="#d2e1f9"/>
    <g id="グループ_2207" data-name="グループ 2207" transform="translate(413.794 233.703)">
      <path id="パス_1075" data-name="パス 1075" d="M423.07,238.946l6.157,3.555,3.555-6.157" transform="translate(-422.445 -235.719)" fill="#d2e1f9"/>
      <path id="パス_1076" data-name="パス 1076" d="M428.621,242.523a1.243,1.243,0,0,1-.622-.168l-5.616-3.242a.625.625,0,1,1,.625-1.083l5.616,3.243,3.242-5.616a.625.625,0,0,1,1.083.625l-3.243,5.616a1.261,1.261,0,0,1-1.086.625Z" transform="translate(-422.07 -235.344)" fill="#113293"/>
    </g>
    <path id="パス_1077" data-name="パス 1077" d="M433.848,266.047a.623.623,0,0,1-.312-.084l-13.827-7.982a.625.625,0,0,1,.625-1.083l13.827,7.983a.625.625,0,0,1-.313,1.166Z" transform="translate(-7.274 -9.692)" fill="#d2e1f9"/>
    <path id="パス_1078" data-name="パス 1078" d="M437.4,259.9a.621.621,0,0,1-.312-.084l-13.826-7.982a.625.625,0,0,1,.625-1.083l13.826,7.983a.625.625,0,0,1-.313,1.166Z" transform="translate(-8.605 -7.386)" fill="#d2e1f9"/>
    <path id="パス_1079" data-name="パス 1079" d="M427.608,270.642a.619.619,0,0,1-.312-.083l-11.259-6.5a.625.625,0,0,1,.625-1.083l11.259,6.5a.625.625,0,0,1-.313,1.166Z" transform="translate(-5.897 -11.971)" fill="#d2e1f9"/>
    <path id="パス_1080" data-name="パス 1080" d="M431.765,270.636a1.243,1.243,0,0,1-.622-.167l-8.736-5.043a.625.625,0,0,1,.625-1.083l8.735,5.044,14.375-24.9-14.073-8.125a1.14,1.14,0,0,0-.671-.088l-8.276,2.217a.625.625,0,1,1-.324-1.207l8.276-2.217a2.341,2.341,0,0,1,1.619.212l14.073,8.125a1.253,1.253,0,0,1,.458,1.708l-14.375,24.9A1.251,1.251,0,0,1,431.765,270.636Z" transform="translate(-8.285 -1.514)" fill="#113293"/>
    <path id="パス_1081" data-name="パス 1081" d="M423.094,282.812" transform="translate(-8.66 -19.441)" fill="none" stroke="#113293" stroke-linecap="round" stroke-linejoin="round" stroke-width="2"/>
    <path id="パス_1082" data-name="パス 1082" d="M412.352,270.317a.624.624,0,0,1-.312-.084l-7.367-4.254a1.252,1.252,0,0,1-.458-1.707l6.115-10.592a.625.625,0,1,1,1.083.625L405.3,264.9l7.367,4.254a.625.625,0,0,1-.313,1.166Z" transform="translate(-1.518 -8.399)" fill="#113293"/>
    <path id="パス_1083" data-name="パス 1083" d="M416.51,247.008a.619.619,0,0,1-.312-.083.625.625,0,0,1-.229-.854l4.122-7.139a.625.625,0,1,1,1.082.625l-4.122,7.139A.625.625,0,0,1,416.51,247.008Z" transform="translate(-5.957 -2.868)" fill="#113293"/>
    <path id="パス_1084" data-name="パス 1084" d="M457.154,273.652h-8.475a.625.625,0,0,1,0-1.25h8.475a.625.625,0,0,1,0,1.25Z" transform="translate(-18.02 -15.537)" fill="#113293"/>
    <path id="パス_1085" data-name="パス 1085" d="M410.586,248.125h-5.444a.625.625,0,0,1,0-1.25h5.444a.625.625,0,0,1,0,1.25Z" transform="translate(-1.694 -5.965)" fill="#113293"/>
    <path id="パス_1086" data-name="パス 1086" d="M401.76,248.125h-.521a.625.625,0,0,1,0-1.25h.521a.625.625,0,0,1,0,1.25Z" transform="translate(-0.23 -5.965)" fill="#113293"/>
    <path id="パス_1087" data-name="パス 1087" d="M418.126,283.087H410.5a.625.625,0,0,1,0-1.25h7.63a.625.625,0,0,1,0,1.25Z" transform="translate(-3.702 -19.075)" fill="#113293"/>
    <rect id="長方形_2867" data-name="長方形 2867" width="40" height="40" transform="translate(400 230.969)" fill="none"/>
  </g>
</svg>
