<svg xmlns="http://www.w3.org/2000/svg" width="80" height="80" viewBox="0 0 80 80">
  <g id="グループ_2239" data-name="グループ 2239" transform="translate(-715.379 -234.938)">
    <ellipse id="楕円形_22" data-name="楕円形 22" cx="21.12" cy="21.007" rx="21.12" ry="21.007" transform="translate(734.259 254.714)" fill="#fff"/>
    <path id="パス_1124" data-name="パス 1124" d="M751.853,294.409a22.372,22.372,0,1,1,11.189-41.747,1.25,1.25,0,0,1-1.253,2.164,19.87,19.87,0,1,0,7.487,7.651,1.25,1.25,0,1,1,2.19-1.2,22.476,22.476,0,0,1-3.8,26.584A22.224,22.224,0,0,1,751.853,294.409Z" transform="translate(3.526 3.683)" fill="#113293"/>
    <path id="パス_1125" data-name="パス 1125" d="M750.668,278.463a1.871,1.871,0,0,1-1.3-.52l-9.675-9.259a1.875,1.875,0,1,1,2.593-2.709l8.379,8.018,18.6-17.794a1.876,1.876,0,0,1,2.594,2.71l-19.9,19.034A1.878,1.878,0,0,1,750.668,278.463Z" transform="translate(5.935 5.185)" fill="#113293"/>
    <rect id="長方形_2881" data-name="長方形 2881" width="80" height="80" transform="translate(715.379 234.938)" fill="none"/>
  </g>
</svg>
